<svg xmlns="http://www.w3.org/2000/svg" viewBox="0 0 1600 1000" preserveAspectRatio="xMidYMid slice">
<rect width="1600" height="1000" fill="#0a2540"/>
<rect width="1600" height="1000" fill="url(#g)"/>
<defs>
<radialGradient id="g" cx="72%" cy="28%" r="75%">
<stop offset="0%" stop-color="#123a63"/>
<stop offset="100%" stop-color="#0a2540"/>
</radialGradient>
</defs>
<path d="M1202.0,280.0 L1207.0,284.3 L1210.4,289.3 L1211.6,294.5 L1210.3,299.5 L1206.6,303.6 L1200.7,306.5 L1193.3,307.9 L1185.1,307.6 L1177.0,305.8 L1169.5,302.7 L1163.3,299.0 L1158.6,295.2 L1155.4,292.0 L1153.4,289.8 L1152.0,289.0 L1150.6,289.8 L1148.6,292.0 L1145.4,295.2 L1140.7,299.0 L1134.5,302.7 L1127.0,305.8 L1118.9,307.6 L1110.7,307.9 L1103.3,306.5 L1097.4,303.6 L1093.7,299.5 L1092.4,294.5 L1093.6,289.3 L1097.0,284.3 L1102.0,280.0 L1108.0,276.5 L1114.3,274.0 L1120.1,272.2 L1125.0,271.0 L1128.6,269.9 L1131.0,268.6 L1132.3,266.7 L1133.0,264.2 L1133.6,261.0 L1134.5,257.3 L1136.2,253.4 L1138.9,249.7 L1142.6,246.7 L1147.1,244.7 L1152.0,244.0 L1156.9,244.7 L1161.4,246.7 L1165.1,249.7 L1167.8,253.4 L1169.5,257.3 L1170.4,261.0 L1171.0,264.2 L1171.7,266.7 L1173.0,268.6 L1175.4,269.9 L1179.0,271.0 L1183.9,272.2 L1189.7,274.0 L1196.0,276.5 L1202.0,280.0 Z" fill="none" stroke="#c7a565" stroke-width="1.1" opacity="0.05"/><path d="M1270.9,280.0 L1273.3,289.6 L1272.3,299.2 L1267.7,308.2 L1260.1,316.1 L1250.1,322.5 L1238.4,327.1 L1226.1,330.0 L1213.8,331.5 L1202.2,331.8 L1191.8,331.7 L1182.6,331.6 L1174.5,331.9 L1167.0,332.9 L1159.7,334.8 L1152.0,337.4 L1143.5,340.3 L1134.1,343.1 L1123.7,345.4 L1112.6,346.4 L1101.2,346.0 L1090.2,343.8 L1080.2,339.8 L1071.8,334.2 L1065.4,327.2 L1061.1,319.4 L1058.9,311.1 L1058.6,302.8 L1059.5,294.7 L1061.3,287.1 L1063.4,280.0 L1065.3,273.2 L1066.9,266.4 L1068.2,259.6 L1069.3,252.4 L1070.8,244.8 L1073.0,236.9 L1076.4,229.0 L1081.5,221.3 L1088.4,214.3 L1097.0,208.6 L1107.2,204.6 L1118.4,202.5 L1130.0,202.5 L1141.4,204.4 L1152.0,208.0 L1161.4,212.9 L1169.5,218.4 L1176.3,224.0 L1182.2,229.2 L1187.7,233.7 L1193.3,237.3 L1199.7,240.2 L1207.3,242.7 L1216.1,245.1 L1226.1,247.9 L1236.7,251.7 L1247.4,256.8 L1257.3,263.2 L1265.4,271.1 L1270.9,280.0 Z" fill="none" stroke="#c7a565" stroke-width="1.1" opacity="0.07"/><path d="M1323.8,280.0 L1321.4,293.3 L1315.5,306.1 L1306.9,317.7 L1296.2,328.1 L1284.1,337.2 L1271.3,345.0 L1258.5,351.9 L1245.8,358.1 L1233.4,364.0 L1221.1,369.8 L1208.7,375.5 L1195.8,381.1 L1182.1,386.3 L1167.5,390.8 L1152.0,394.1 L1135.8,395.7 L1119.3,395.4 L1103.1,392.9 L1087.7,388.3 L1073.8,381.6 L1061.7,373.2 L1051.7,363.6 L1043.7,353.1 L1037.4,342.4 L1032.6,331.7 L1028.5,321.2 L1024.8,311.0 L1021.1,300.9 L1017.1,290.6 L1013.0,280.0 L1009.0,268.7 L1005.7,256.7 L1003.9,243.9 L1004.1,230.6 L1007.0,217.2 L1013.0,204.2 L1022.2,192.4 L1034.6,182.2 L1049.6,174.3 L1066.5,169.0 L1084.5,166.3 L1102.7,166.3 L1120.4,168.5 L1136.9,172.3 L1152.0,177.2 L1165.7,182.4 L1178.2,187.6 L1190.0,192.2 L1201.7,196.2 L1213.8,199.7 L1226.7,202.9 L1240.5,206.3 L1255.0,210.4 L1269.9,215.8 L1284.4,222.7 L1297.8,231.3 L1309.0,241.7 L1317.5,253.6 L1322.5,266.6 L1323.8,280.0 Z" fill="none" stroke="#c7a565" stroke-width="1.1" opacity="0.09"/><path d="M1360.2,280.0 L1355.6,296.0 L1348.9,311.4 L1340.8,326.0 L1331.7,340.0 L1321.9,353.6 L1311.4,366.8 L1299.9,379.9 L1287.4,392.8 L1273.3,405.2 L1257.4,416.9 L1239.5,427.3 L1219.6,436.0 L1198.0,442.4 L1175.3,446.0 L1152.0,446.6 L1129.0,444.1 L1107.0,438.6 L1086.8,430.6 L1068.6,420.5 L1052.7,409.0 L1039.0,396.6 L1027.1,384.0 L1016.6,371.5 L1006.7,359.2 L997.1,347.1 L987.3,335.0 L977.2,322.6 L967.1,309.5 L957.4,295.3 L948.8,280.0 L942.3,263.5 L938.6,246.0 L938.6,228.0 L942.8,210.1 L951.2,193.1 L964.0,177.5 L980.4,164.1 L999.9,153.3 L1021.4,145.2 L1044.1,139.8 L1067.1,136.9 L1089.6,136.0 L1111.4,136.6 L1132.1,138.1 L1152.0,140.1 L1171.3,142.4 L1190.3,144.7 L1209.5,147.3 L1229.0,150.4 L1248.7,154.3 L1268.6,159.6 L1288.1,166.6 L1306.6,175.6 L1323.4,186.6 L1337.8,199.5 L1349.1,214.2 L1357.1,230.0 L1361.4,246.6 L1362.4,263.4 L1360.2,280.0 Z" fill="none" stroke="#c7a565" stroke-width="1.1" opacity="0.05"/><path d="M1394.2,280.0 L1391.9,298.9 L1388.7,317.7 L1384.5,336.7 L1379.1,355.8 L1372.0,375.3 L1362.7,394.8 L1350.5,414.0 L1335.1,432.5 L1316.1,449.4 L1293.8,464.2 L1268.4,476.0 L1240.6,484.5 L1211.3,489.1 L1181.4,489.9 L1152.0,486.9 L1123.9,480.8 L1097.6,471.9 L1073.5,461.1 L1051.7,449.0 L1031.7,436.3 L1013.3,423.2 L995.8,410.1 L978.9,396.9 L962.2,383.5 L945.6,369.4 L929.6,354.3 L914.4,337.9 L901.0,320.0 L890.1,300.6 L882.5,280.0 L879.1,258.5 L880.2,236.7 L886.2,215.2 L896.8,194.8 L911.6,175.9 L930.1,159.1 L951.3,144.4 L974.4,132.1 L998.8,121.9 L1023.8,113.5 L1049.1,106.7 L1074.5,101.1 L1100.0,96.6 L1125.8,93.1 L1152.0,90.7 L1178.7,89.6 L1205.8,90.3 L1233.0,93.0 L1259.9,98.2 L1285.9,106.0 L1310.2,116.6 L1332.2,129.9 L1351.2,145.5 L1366.8,163.0 L1378.7,181.8 L1387.2,201.5 L1392.4,221.4 L1395.0,241.3 L1395.4,260.8 L1394.2,280.0 Z" fill="none" stroke="#c7a565" stroke-width="1.1" opacity="0.07"/><path d="M1441.7,280.0 L1444.0,303.0 L1444.6,326.6 L1443.0,350.9 L1438.5,375.7 L1430.2,400.5 L1417.7,424.8 L1400.5,447.8 L1378.7,468.8 L1352.5,487.0 L1322.7,501.8 L1290.1,512.7 L1255.8,519.6 L1220.8,522.7 L1185.9,522.1 L1152.0,518.4 L1119.4,512.3 L1088.5,504.2 L1059.0,494.7 L1030.8,484.1 L1003.7,472.6 L977.5,460.2 L952.0,446.6 L927.4,431.7 L904.2,415.1 L882.7,396.6 L863.9,376.2 L848.3,354.0 L836.8,330.2 L829.9,305.4 L827.8,280.0 L830.5,254.7 L837.9,229.9 L849.5,206.3 L864.6,184.0 L882.6,163.3 L902.8,144.2 L924.7,126.5 L948.0,110.1 L972.6,94.8 L998.5,80.6 L1025.9,67.6 L1055.0,56.0 L1085.7,46.2 L1118.2,38.6 L1152.0,33.9 L1186.7,32.5 L1221.5,34.9 L1255.5,41.1 L1287.8,51.2 L1317.5,65.0 L1344.0,81.8 L1366.7,101.2 L1385.5,122.3 L1400.6,144.5 L1412.4,167.2 L1421.5,190.0 L1428.5,212.6 L1434.0,235.0 L1438.3,257.4 L1441.7,280.0 Z" fill="none" stroke="#c7a565" stroke-width="1.1" opacity="0.09"/><path d="M1507.1,280.0 L1511.2,308.3 L1511.6,337.3 L1507.5,366.6 L1498.5,395.7 L1484.2,423.8 L1464.5,450.3 L1439.8,474.4 L1410.7,495.5 L1378.0,513.3 L1342.6,527.6 L1305.4,538.4 L1267.2,545.9 L1228.6,550.4 L1190.2,552.3 L1152.0,552.0 L1114.2,549.6 L1076.8,545.2 L1039.8,538.9 L1003.4,530.4 L967.7,519.5 L933.2,505.9 L900.6,489.4 L870.7,470.0 L844.2,447.7 L821.9,422.9 L804.6,396.0 L792.4,367.6 L785.6,338.4 L783.9,309.0 L786.9,280.0 L793.9,251.8 L804.3,224.6 L817.4,198.5 L832.7,173.4 L849.8,149.1 L868.6,125.6 L889.4,102.6 L912.3,80.3 L937.9,59.0 L966.4,38.9 L998.2,20.9 L1033.1,5.4 L1070.8,-6.6 L1110.7,-14.5 L1152.0,-17.9 L1193.5,-16.4 L1234.2,-10.1 L1273.0,0.8 L1308.9,15.7 L1341.4,34.0 L1370.2,54.8 L1395.3,77.4 L1417.0,101.1 L1435.7,125.4 L1452.1,150.0 L1466.6,175.0 L1479.4,200.2 L1490.6,226.0 L1500.0,252.6 L1507.1,280.0 Z" fill="none" stroke="#c7a565" stroke-width="1.1" opacity="0.05"/><path d="M1579.5,280.0 L1580.2,313.8 L1575.1,347.5 L1564.1,380.4 L1547.3,412.0 L1525.1,441.6 L1498.3,468.7 L1467.5,493.1 L1433.6,514.6 L1397.4,533.3 L1359.4,549.4 L1320.1,563.1 L1279.6,574.6 L1238.1,583.9 L1195.6,590.9 L1152.0,595.6 L1107.5,597.5 L1062.4,596.2 L1017.2,591.2 L972.7,582.1 L929.7,568.7 L889.5,551.0 L852.9,529.1 L821.0,503.5 L794.4,474.9 L773.6,443.8 L758.6,411.4 L749.2,378.2 L744.8,344.9 L744.7,312.1 L748.2,280.0 L754.5,248.7 L763.2,218.0 L774.0,187.9 L787.0,158.1 L802.4,128.6 L820.7,99.5 L842.5,71.0 L868.2,43.6 L898.3,18.1 L932.8,-4.8 L971.4,-24.3 L1013.5,-39.6 L1058.4,-50.2 L1105.0,-55.6 L1152.0,-56.0 L1198.4,-51.3 L1243.3,-42.1 L1285.8,-28.9 L1325.6,-12.4 L1362.4,6.6 L1396.4,27.7 L1427.6,50.4 L1456.4,74.5 L1482.8,99.7 L1506.9,126.3 L1528.5,154.3 L1547.1,183.7 L1562.3,214.6 L1573.3,246.8 L1579.5,280.0 Z" fill="none" stroke="#c7a565" stroke-width="1.1" opacity="0.07"/><path d="M1643.3,280.0 L1637.5,318.3 L1625.2,355.4 L1607.2,390.9 L1584.1,424.3 L1556.9,455.3 L1526.4,484.0 L1493.3,510.5 L1457.9,534.8 L1420.7,557.3 L1381.5,578.1 L1340.2,597.0 L1296.6,613.8 L1250.7,628.1 L1202.4,639.4 L1152.0,646.9 L1100.2,649.9 L1047.7,648.0 L995.7,640.7 L945.5,627.9 L898.2,609.7 L855.0,586.6 L816.7,559.3 L784.0,528.5 L757.0,495.2 L735.7,460.3 L719.7,424.4 L708.3,388.1 L700.9,351.9 L697.1,315.9 L696.3,280.0 L698.6,244.3 L703.9,208.6 L712.7,172.9 L725.4,137.5 L742.5,102.7 L764.7,68.9 L792.0,36.9 L824.7,7.4 L862.5,-18.9 L904.7,-41.2 L950.7,-59.1 L999.4,-72.2 L1049.9,-80.4 L1101.0,-83.9 L1152.0,-82.9 L1202.2,-78.0 L1251.1,-69.5 L1298.4,-58.0 L1344.1,-43.6 L1388.0,-26.6 L1430.1,-7.1 L1470.1,15.1 L1507.6,39.9 L1542.1,67.4 L1572.8,97.8 L1598.9,130.8 L1619.7,166.0 L1634.3,203.1 L1642.2,241.4 L1643.3,280.0 Z" fill="none" stroke="#c7a565" stroke-width="1.1" opacity="0.09"/><path d="M1692.3,280.0 L1682.0,321.8 L1666.0,361.9 L1645.3,400.2 L1620.7,436.5 L1592.9,470.9 L1562.3,503.6 L1529.1,534.7 L1493.2,564.2 L1454.3,592.0 L1412.1,617.9 L1366.4,641.2 L1317.2,661.3 L1264.7,677.5 L1209.3,689.0 L1152.0,695.1 L1093.8,695.4 L1035.9,689.7 L979.5,678.1 L925.9,660.8 L876.0,638.5 L830.5,611.9 L789.8,581.7 L754.0,548.8 L722.9,513.8 L696.5,477.3 L674.2,439.5 L656.1,400.8 L642.0,361.3 L632.0,321.0 L626.5,280.0 L626.0,238.5 L630.9,196.9 L641.8,155.7 L659.0,115.4 L682.7,76.8 L712.8,40.7 L748.7,7.7 L789.9,-21.6 L835.5,-46.7 L884.5,-67.5 L936.0,-83.9 L989.0,-96.1 L1043.0,-104.4 L1097.5,-109.1 L1152.0,-110.5 L1206.5,-108.8 L1260.8,-103.9 L1314.8,-95.8 L1368.2,-84.2 L1420.6,-68.9 L1471.1,-49.4 L1519.1,-25.8 L1563.3,2.3 L1602.6,34.5 L1635.9,70.4 L1662.4,109.6 L1681.4,151.0 L1692.6,193.8 L1696.1,237.1 L1692.3,280.0 Z" fill="none" stroke="#c7a565" stroke-width="1.1" opacity="0.05"/><path d="M1735.0,280.0 L1725.6,325.2 L1711.4,369.2 L1692.9,411.8 L1670.3,453.1 L1643.9,493.0 L1613.5,531.5 L1578.8,568.2 L1539.6,602.8 L1495.6,634.7 L1447.0,663.3 L1394.0,687.6 L1337.1,707.2 L1277.1,721.3 L1215.0,729.5 L1152.0,731.7 L1089.2,728.0 L1027.7,718.5 L968.4,703.9 L911.8,684.6 L858.5,661.3 L808.6,634.5 L762.3,604.6 L719.6,572.0 L680.7,536.8 L645.7,499.2 L615.1,459.3 L589.5,417.1 L569.5,372.9 L555.9,327.0 L549.4,280.0 L550.6,232.6 L559.7,185.6 L577.0,139.9 L601.9,96.3 L633.9,55.7 L672.2,18.5 L715.6,-14.7 L763.2,-43.9 L813.8,-69.1 L866.8,-90.5 L921.4,-108.5 L977.3,-123.2 L1034.4,-134.9 L1092.6,-143.5 L1152.0,-149.0 L1212.4,-151.0 L1273.6,-149.0 L1335.1,-142.5 L1396.0,-131.0 L1455.3,-114.0 L1511.9,-91.5 L1564.2,-63.4 L1611.1,-30.0 L1651.5,7.8 L1684.5,49.4 L1709.6,93.8 L1726.8,139.9 L1736.4,186.8 L1738.9,233.7 L1735.0,280.0 Z" fill="none" stroke="#c7a565" stroke-width="1.1" opacity="0.07"/><path d="M1786.1,280.0 L1781.9,329.7 L1772.2,378.9 L1756.9,427.4 L1735.8,474.9 L1708.4,520.9 L1674.7,564.8 L1634.6,605.9 L1588.2,643.3 L1536.0,676.4 L1478.7,704.4 L1417.2,726.8 L1352.7,743.4 L1286.3,754.0 L1219.1,758.9 L1152.0,758.4 L1085.7,752.8 L1020.9,742.7 L957.7,728.5 L896.4,710.5 L837.2,688.9 L780.3,663.7 L725.9,634.9 L674.7,602.3 L627.4,565.8 L585.0,525.5 L548.5,481.5 L519.0,434.2 L497.7,384.3 L485.1,332.6 L481.9,280.0 L488.1,227.7 L503.4,176.6 L527.1,127.7 L558.2,81.7 L595.7,39.1 L638.4,0.1 L685.2,-35.2 L735.4,-67.0 L788.2,-95.6 L843.3,-121.0 L900.7,-143.4 L960.2,-162.7 L1022.0,-178.6 L1086.0,-190.7 L1152.0,-198.5 L1219.4,-201.2 L1287.6,-198.3 L1355.3,-189.4 L1421.5,-174.0 L1484.8,-152.3 L1543.8,-124.5 L1597.5,-91.1 L1644.9,-52.9 L1685.5,-10.7 L1718.9,34.5 L1745.2,81.9 L1764.7,130.7 L1777.8,180.2 L1784.8,230.1 L1786.1,280.0 Z" fill="none" stroke="#c7a565" stroke-width="1.1" opacity="0.09"/><path d="M1851.9,280.0 L1852.5,335.2 L1845.3,390.5 L1829.9,445.2 L1805.9,498.4 L1773.4,549.1 L1732.7,596.4 L1684.2,639.4 L1629.1,677.4 L1568.3,709.7 L1503.2,736.2 L1435.1,756.9 L1365.1,771.8 L1294.1,781.4 L1222.9,786.1 L1152.0,786.4 L1081.6,782.6 L1011.8,774.7 L942.8,763.0 L874.7,747.1 L808.0,726.8 L743.4,701.8 L681.7,671.8 L624.1,636.5 L571.9,596.1 L526.4,550.9 L488.8,501.4 L460.2,448.6 L441.2,393.3 L432.1,336.7 L432.7,280.0 L442.6,224.1 L460.9,169.8 L486.7,117.9 L519.0,68.6 L556.9,22.3 L599.5,-21.0 L646.5,-61.4 L697.3,-98.7 L752.0,-132.9 L810.4,-163.7 L872.6,-190.7 L938.3,-213.4 L1007.1,-231.1 L1078.7,-243.2 L1152.0,-249.2 L1226.1,-248.6 L1299.7,-241.1 L1371.6,-226.9 L1440.6,-206.1 L1505.6,-179.4 L1565.9,-147.3 L1620.8,-110.5 L1670.1,-69.9 L1713.6,-26.0 L1751.3,20.5 L1783.3,69.2 L1809.6,119.7 L1830.0,171.9 L1844.3,225.4 L1851.9,280.0 Z" fill="none" stroke="#c7a565" stroke-width="1.1" opacity="0.05"/><path d="M1924.3,280.0 L1925.0,340.9 L1915.5,401.7 L1895.6,461.2 L1865.5,518.2 L1825.8,571.8 L1777.6,620.9 L1721.9,664.9 L1660.3,703.4 L1593.9,736.2 L1524.2,763.5 L1452.1,785.5 L1378.4,802.6 L1303.6,815.0 L1228.1,823.0 L1152.0,826.7 L1075.5,825.8 L998.9,820.3 L922.6,809.5 L847.3,793.2 L774.1,770.9 L704.0,742.5 L638.4,707.8 L578.6,667.2 L525.9,621.1 L481.4,570.4 L445.7,515.8 L419.3,458.6 L402.2,399.5 L394.2,339.7 L394.8,280.0 L403.4,221.0 L419.3,163.2 L442.0,107.0 L471.2,52.7 L506.5,0.5 L547.8,-49.2 L595.1,-96.1 L648.4,-139.5 L707.5,-178.8 L772.2,-213.3 L841.9,-242.3 L915.9,-265.0 L993.0,-280.9 L1072.2,-289.7 L1152.0,-291.2 L1231.3,-285.5 L1308.8,-273.1 L1383.6,-254.5 L1454.9,-230.3 L1522.3,-201.1 L1585.6,-167.6 L1644.6,-130.3 L1699.1,-89.5 L1749.1,-45.4 L1794.3,1.9 L1834.2,52.2 L1868.0,105.5 L1895.0,161.6 L1914.1,219.9 L1924.3,280.0 Z" fill="none" stroke="#c7a565" stroke-width="1.1" opacity="0.07"/>
</svg>